<svg xmlns="http://www.w3.org/2000/svg" viewBox="0 0 762 762" fill="none" shape-rendering="auto"><metadata xmlns:rdf="http://www.w3.org/1999/02/22-rdf-syntax-ns#" xmlns:xsi="http://www.w3.org/2001/XMLSchema-instance" xmlns:dc="http://purl.org/dc/elements/1.1/" xmlns:dcterms="http://purl.org/dc/terms/"><rdf:RDF><rdf:Description><dc:title>Adventurer</dc:title><dc:creator>Lisa Wischofsky</dc:creator><dc:source xsi:type="dcterms:URI">https://www.figma.com/community/file/1184595184137881796</dc:source><dcterms:license xsi:type="dcterms:URI">https://creativecommons.org/licenses/by/4.0/</dcterms:license><dc:rights>Remix of „Adventurer” (https://www.figma.com/community/file/1184595184137881796) by „Lisa Wischofsky”, licensed under „CC BY 4.0” (https://creativecommons.org/licenses/by/4.0/)</dc:rights></rdf:Description></rdf:RDF></metadata><mask id="viewboxMask"><rect width="762" height="762" rx="0" ry="0" x="0" y="0" fill="#fff" /></mask><g mask="url(#viewboxMask)"><path d="M396 164.8a224.8 224.8 0 0 1 104.8 42.4c6.2 4.9 12.5 9.4 18 15a225.4 225.4 0 0 1 71.8 149 58.5 58.5 0 0 1 50.9 42.2 71 71 0 0 1-27.6 76.5c-11 7.7-24.5 12-38 11.7-5 0-10-1.6-15-1.8-1.9 2.2-3.3 4.9-4.8 7.3A223.3 223.3 0 0 1 389 609.8c-11 .7-21.9 2-33 .7a223.7 223.7 0 0 1-178.8-342.3A223.4 223.4 0 0 1 352 163.5c14.6-1.4 29.4-.3 44 1.3Z" fill="#000"/><path fill-rule="evenodd" clip-rule="evenodd" d="M498.8 213.2A216 216 0 0 0 363 169c-13-.2-26.2 1.6-39 4a218 218 0 0 0-113.6 365.5 218.5 218.5 0 0 0 260.4 40.2c35-18.8 64.2-47.3 84.4-81.5l-3-1.6c-2.8-1.4-5.7-3-8-5-2.2-2-.3-5.8 2.7-4.7 1.5.7 3 1.6 4.4 2.4a55 55 0 0 0 59.6-3.6 64.5 64.5 0 0 0 25-69.8 53.1 53.1 0 0 0-24-31 52.6 52.6 0 0 0-47-2.8c-1.6.8-3.4 1.5-5 1.3-2.5-.2-2.8-4.2-.6-5.2 8-4 16.5-5.6 25.4-6.4a217 217 0 0 0-72-146.4c-4.4-4-8.7-8.1-13.9-11.3Zm107.6 196.2c2-1.2 1.3-5.1-1.4-5-2 0-4.2.8-6.2 1.6l-1.4.4a95.1 95.1 0 0 0-25.5 12.4c-2.2 2-2.2 4.4.1 6.2a92 92 0 0 0 5.2 2.8 36 36 0 0 1 13 9.2c-.2 1.9-2 3.4-3.4 4.5l-.2.2c-3.9 3-8.8 5-13.6 7-2.5 1-4.9 2-7.1 3.1-1.7.8-2.6 2.2-1.6 3.9 1 2 3.2 1.1 5 .5l.6-.2 5.4-2.3c5.4-2.3 11-4.5 15.4-8 2.7-2.1 5.1-5.1 5.4-8.7-.5-3.4-2.7-5.7-5.3-7.8a83 83 0 0 0-11.6-7.2l-1.1-.6c5.4-3 10.8-5.6 16.6-7.7l5-1.7a52 52 0 0 0 6.7-2.6Z" fill="#ecad80"/><g transform="translate(-161 -83)"><path d="M380.2 447.2a55.2 55.2 0 0 1 61 45.5 55 55 0 1 1-61-45.5Z" fill="#000"/><path d="M378.2 453.3a49.4 49.4 0 0 1 57 58.2 49.3 49.3 0 1 1-57-58.2Z" fill="#fff"/><path d="M590 475c13-.7 27-1.4 39.8 1.4 2.2.6 3 1.3 2.3 3.7-2 1.7-6 3.3-6.8 6 0 6 9 6 9.7 10.9-.3 3-2.4 3.3-5 3.1-7.6-.6-15.3-1.2-23-1.4-16 0-32-.2-48 .9-7.6.7-15.2.6-22.8 1.2-11 1-22.1 1.3-33.1 3.3-2.7.5-5.5 1.1-8.2 1-2-1.2-3.1-5.5-.6-6.8 5.3-3 11.3-5 17.2-6.8 15-5 30.7-8.3 46.2-11.7 10.7-2.4 21.5-3.7 32.3-4.9ZM405.4 479.7a20.2 20.2 0 1 1 4.5 39.5 20.1 20.1 0 0 1-4.5-39.5Z" fill="#000"/></g><g transform="translate(-161 -83)"><path d="M613.5 401.5c1.6 1 1.1 2.9 1.3 4.5l-.1 34c.3 2.8-2.5 4.2-4.7 5l-120 41.1c-2.5.2-2.9-1.7-3.5-3.6l-5-18c1 5.8 1 11.7 1.3 17.5 0 1.4.5 4-1 4.9-2 1.4-4 0-4.6-2l-10.6-38.4c-.4-1.8-.7-3.9 1.3-4.9 2.2-.5 3.5.5 4 2.5 1.3 4.5 2.6 9 3.7 13.7-.7-5.3-1-10.5-1.2-15.8 0-1.3-.1-3.7 1.7-3.8l4.4-.7 123.6-35.2c3.3-.9 6-2.1 9.4-.8ZM324 433.9c13.6 1.4 27.4 1.4 41 2.6 21 1 42.1 2.6 63.1 3.4 7.8.8 15.6 1 23.5 1.7 2.8 2.1 1 8 1.9 11.3.6-3 .2-7 2-9.5 2-1.8 5-.1 4.7 2.6-2.4 14-4.8 28.1-7 42.2-.8 2.9-4.5 2.5-5.3-.2-.3-5-.2-9.9-.3-14.8-1 4.3-1.5 8.7-2.5 13-.4 1.6-1.2 2.8-3 2.4l-119-21.3c-1.8-.2-2.8-1.5-3-3.3-1.5-8-2.6-16-4.2-24-.2-1.7-.7-3.1.6-4.6 2.1-2.2 4.7-1.6 7.5-1.5Z" fill="#000"/></g><g transform="translate(-161 -83)"><path d="M534.3 562.6c8 1.1 15.4 4.3 21.2 9.9a39 39 0 0 1 11.9 29.5c.3 9.8-2.4 19.1-6.7 27.8a82.5 82.5 0 0 1-70.7 45.3 107.2 107.2 0 0 1-82-34 46.4 46.4 0 0 1-11.6-29.1c0-7.9 4-15.6 10.5-20.2A42 42 0 0 1 430 585c14.2.2 27.8 4.4 40.2 11.2a79.6 79.6 0 0 1 34-29c9.4-4.2 19.8-6 30-4.6Z" fill="#000"/><path d="M533.5 568.3c9.2 1.3 18 6.3 22.9 14.3 6 9.6 6.6 21 3.8 31.8-4-.5-8-.7-12-.2-10.8.6-21.7 3.4-32 7a42.9 42.9 0 0 0-.5-23.9c-1.7-3.8-5.4-6.2-9.6-4.3-6.6 3.1-10.3 11.9-13 18.2-4.8-1.6-11.3-3.8-16-1.2-4 2.2-3.9 6.5-2.5 10.2 2.6 6.3 7.7 11.1 12.6 15.5a114 114 0 0 0-31.1 29c-15-4.7-28.7-13-40-23.7a45.7 45.7 0 0 1-13.7-24.4c-1-6.4.7-13.2 5.4-17.8 4.4-4.6 11-6.7 17.2-7.5a69.3 69.3 0 0 1 35.2 6.5c3.8 1.5 7.1 3.8 10.8 5.4 2.7.3 3.7-3.4 5-5.2a70 70 0 0 1 38.7-28.3c6-1.8 12.6-1.9 18.8-1.4Z" fill="#8F2E45"/><path d="M509 597.9c2.6 2.3 2.7 6.8 2.9 10-.1 11-3.2 22-8 31.7a54 54 0 0 1-23.3-20.2c-1-1.4-1-3-1.2-4.6 5.2-.7 9.2 1 13.8 2.9 2.8 1 3.9-1.4 5-3.5 2.4-5.5 5.1-13.3 10.8-16.3Z" fill="#D32020"/><path d="M558.6 620a70.8 70.8 0 0 1-11 19.6c-3.8 4.8-8.5 8.9-13 13a77 77 0 0 1-35.1 15.6c-12.5 2-25.2 1.2-37.5-1.6 8-11.1 18.6-19.9 30.3-27.1 3.7 2.3 7.6 5.1 11.7 6.6 1.4.6 2.8-.4 3.6-1.5 3.2-4.9 4.9-10 6.8-15.4.4-1.4 1.6-1.6 2.8-2.1 13-4.7 27.5-8.1 41.4-7.2Z" fill="#EA869E"/></g><g transform="translate(-161 -83)"></g><g transform="translate(-161 -83)"></g><g transform="translate(-161 -83)"><path d="M464 199.3c14.7-1 29.4 2.8 42.6 9.1a66.2 66.2 0 0 1 33.3 32.7c1 2.6 1.2 5-.7 7.1-1.5.7-3.5.6-5 1-3 1-5.3 3.4-6.5 6.3-2.8 6.3-3.9 13.4-6.1 20-2.2 7-5.2 13.5-10.2 19A98.5 98.5 0 0 1 462 323a84.4 84.4 0 0 1-45-1c-7.7-2.3-14.1-7.4-18.4-14.1-.8-1.3-.2-3.5 1.6-3.6 4.5-.4 8.8-.5 13-2.4 5.8-2.3 9-7.8 10-13.8 1.1-8.4-.5-15.9-1.4-24.2a95.3 95.3 0 0 1-.4-32.2c1.6-7.5 5.1-14.4 10.7-19.7a49.6 49.6 0 0 1 31.9-12.8Z" fill="#000"/><path d="M462 205.2c13.3-1.4 27.3 2 39.5 7.3 14.3 6.6 27 16 33.6 30.7a17.1 17.1 0 0 0-12.5 10.3c-4.3 9.9-5.4 21.1-11.1 31a62.5 62.5 0 0 1-16.3 16.7 92.4 92.4 0 0 1-60.7 18.5c-9.8-1.2-20-2.6-27.1-10a39 39 0 0 0 10.7-3.6c5.9-3.5 9.7-9.6 10.8-16.3 1.4-11.9-1.1-22.2-2.2-33.8-.8-5.2-.6-10.7-.5-16 .5-8.6 3.3-17.2 9.5-23.3a43 43 0 0 1 26.3-11.5Z" fill="#afafaf"/></g><g transform="translate(-161 -83)"></g></g></svg>