<svg xmlns="http://www.w3.org/2000/svg" viewBox="0 0 762 762" fill="none" shape-rendering="auto"><metadata xmlns:rdf="http://www.w3.org/1999/02/22-rdf-syntax-ns#" xmlns:xsi="http://www.w3.org/2001/XMLSchema-instance" xmlns:dc="http://purl.org/dc/elements/1.1/" xmlns:dcterms="http://purl.org/dc/terms/"><rdf:RDF><rdf:Description><dc:title>Adventurer</dc:title><dc:creator>Lisa Wischofsky</dc:creator><dc:source xsi:type="dcterms:URI">https://www.figma.com/community/file/1184595184137881796</dc:source><dcterms:license xsi:type="dcterms:URI">https://creativecommons.org/licenses/by/4.0/</dcterms:license><dc:rights>Remix of „Adventurer” (https://www.figma.com/community/file/1184595184137881796) by „Lisa Wischofsky”, licensed under „CC BY 4.0” (https://creativecommons.org/licenses/by/4.0/)</dc:rights></rdf:Description></rdf:RDF></metadata><mask id="viewboxMask"><rect width="762" height="762" rx="0" ry="0" x="0" y="0" fill="#fff" /></mask><g mask="url(#viewboxMask)"><path d="M396 164.8a224.8 224.8 0 0 1 104.8 42.4c6.2 4.9 12.5 9.4 18 15a225.4 225.4 0 0 1 71.8 149 58.5 58.5 0 0 1 50.9 42.2 71 71 0 0 1-27.6 76.5c-11 7.7-24.5 12-38 11.7-5 0-10-1.6-15-1.8-1.9 2.2-3.3 4.9-4.8 7.3A223.3 223.3 0 0 1 389 609.8c-11 .7-21.9 2-33 .7a223.7 223.7 0 0 1-178.8-342.3A223.4 223.4 0 0 1 352 163.5c14.6-1.4 29.4-.3 44 1.3Z" fill="#000"/><path fill-rule="evenodd" clip-rule="evenodd" d="M498.8 213.2A216 216 0 0 0 363 169c-13-.2-26.2 1.6-39 4a218 218 0 0 0-113.6 365.5 218.5 218.5 0 0 0 260.4 40.2c35-18.8 64.2-47.3 84.4-81.5l-3-1.6c-2.8-1.4-5.7-3-8-5-2.2-2-.3-5.8 2.7-4.7 1.5.7 3 1.6 4.4 2.4a55 55 0 0 0 59.6-3.6 64.5 64.5 0 0 0 25-69.8 53.1 53.1 0 0 0-24-31 52.6 52.6 0 0 0-47-2.8c-1.6.8-3.4 1.5-5 1.3-2.5-.2-2.8-4.2-.6-5.2 8-4 16.5-5.6 25.4-6.4a217 217 0 0 0-72-146.4c-4.4-4-8.7-8.1-13.9-11.3Zm107.6 196.2c2-1.2 1.3-5.1-1.4-5-2 0-4.2.8-6.2 1.6l-1.4.4a95.1 95.1 0 0 0-25.5 12.4c-2.2 2-2.2 4.4.1 6.2a92 92 0 0 0 5.2 2.8 36 36 0 0 1 13 9.2c-.2 1.9-2 3.4-3.4 4.5l-.2.2c-3.9 3-8.8 5-13.6 7-2.5 1-4.9 2-7.1 3.1-1.7.8-2.6 2.2-1.6 3.9 1 2 3.2 1.1 5 .5l.6-.2 5.4-2.3c5.4-2.3 11-4.5 15.4-8 2.7-2.1 5.1-5.1 5.4-8.7-.5-3.4-2.7-5.7-5.3-7.8a83 83 0 0 0-11.6-7.2l-1.1-.6c5.4-3 10.8-5.6 16.6-7.7l5-1.7a52 52 0 0 0 6.7-2.6Z" fill="#f2d3b1"/><g transform="translate(-161 -83)"><path d="M574.5 426.5a66.4 66.4 0 0 1 34 22.7c7.5-5.1 14.7-10.7 22.4-15.7l3 1.3c-.3 2.1-.2 3.6-2.2 4.9l-20 14.2a64.5 64.5 0 0 1 9.8 44c-.5 2.7-3 3.4-5.5 3.6-19.7 1-39.4 3-59 5.4-11 1.5-22.2 2-33.2 3.6l-13.6 1.8c-5 .7-9.5 1.7-14.5.3a65.2 65.2 0 0 1 78.8-86.1Z" fill="#000"/><path d="M565.5 430.4a59.8 59.8 0 0 1 50.7 65.2c-4.7.4-9.5 1-14.2 1.2-18 1.2-36 3.3-53.8 5.4 1-3 2.2-6 2.5-9.2.8-9.3-4.1-18.8-12.3-23.4a25 25 0 0 0-17.5-2.7 24.5 24.5 0 0 0-19.5 25.1 25 25 0 0 0 6.3 15.8l-7.3.7a59.3 59.3 0 0 1 35.4-74.9 60.5 60.5 0 0 1 29.7-3.2Z" fill="#fff"/><path d="M416.5 455.4a55 55 0 0 1 23.3 61.7c-5.4 1-10.4.5-15.8.5-24-.2-48-.1-72 1.5-5.9-.1-12.6 1.6-17.8-1.2-1-4.6-2.1-9.2-2.3-13.9-.3-10 2.2-20 6.8-29-6-3.9-12.3-7.5-18.2-11.6-1.9-1.4-1.7-2.7-.8-4.7 2.7-1 4.5.5 6.8 1.8l15.2 9.8a55.3 55.3 0 0 1 74.8-14.9Z" fill="#000"/><path d="M400.8 454.5a49.4 49.4 0 0 1 34.3 57.9l-5.6.1a26 26 0 0 0 2.9-14.5c-1-8.6-7.3-16.1-15.6-18.6a22 22 0 0 0-28.5 19.6c-.4 4.7 1 9 2.8 13.2-13.4 0-26.8.6-40 1.6-3.8.2-8 .7-11.6-.3-1.6-3-1.6-7.1-1.8-10.5a49.1 49.1 0 0 1 63.1-48.5Z" fill="#fff"/></g><g transform="translate(-161 -83)"><path d="M397 373.1c6.9.2 14.2 2.9 18 9 1 1.4.6 3.6.7 5.3-6.3.2-12.5.4-18.6 1.9a112 112 0 0 0-41.7 20.1 90 90 0 0 0-22 23c-1.3 2.3-2.3 5.1-4.2 7-1.2.2-2.6.2-3.8.3 0-1.8-.3-3.4.2-5.2a88.7 88.7 0 0 1 38-50.8c10-5.8 21.8-11 33.5-10.6ZM578.5 411.7a71.4 71.4 0 0 1 30 10l-.2 4.7c-4 1.6-7.3-.1-11.3-.8-6.8-1.2-13.9-1.2-20.8-1a197.5 197.5 0 0 0-84 23.7c-1.4.6-3 1-4.4 1.5-2.6-5.4-3.6-11-.1-16.2 5-7.6 15.2-12.4 23.6-15.4 21.3-7.4 44.9-9 67.2-6.5Z" fill="#000"/></g><g transform="translate(-161 -83)"><path d="M505 633.2c9 .5 16.9 6.7 24.1 11.4-13-.2-26.3 2.1-39 5.5-9.4 2.6-18.6 6-27 11 3.2-8.1 7.8-18.1 16.6-21.4 4-2 7.7-1.2 12-.9 3.8-3.3 8-6 13.3-5.6Z" fill="#D31E1E"/><path d="M529.1 644.6c2.5.1 4.7 1.4 4 4.2-1.5 2-4.5 1.3-6.7 1.5a155 155 0 0 0-43.8 8.3 73.8 73.8 0 0 0-14 6.2c-2 1-3.3 2.6-5.6 1.5-2.2-1.6-1.2-3.5 0-5.2 8.6-5 17.7-8.4 27.1-11 12.7-3.4 26-5.7 39-5.5Z" fill="#000"/><path d="M526.4 650.3a39.8 39.8 0 0 1-24.5 18.5 47 47 0 0 1-33.2-4c4.4-2.6 9-4.5 13.9-6.2a155 155 0 0 1 43.8-8.3Z" fill="#D31E1E"/></g><g transform="translate(-161 -83)"></g><g transform="translate(-161 -83)"></g><g transform="translate(-161 -83)"><path d="M464 199.3c14.7-1 29.4 2.8 42.6 9.1a66.2 66.2 0 0 1 33.3 32.7c1 2.6 1.2 5-.7 7.1-1.5.7-3.5.6-5 1-3 1-5.3 3.4-6.5 6.3-2.8 6.3-3.9 13.4-6.1 20-2.2 7-5.2 13.5-10.2 19A98.5 98.5 0 0 1 462 323a84.4 84.4 0 0 1-45-1c-7.7-2.3-14.1-7.4-18.4-14.1-.8-1.3-.2-3.5 1.6-3.6 4.5-.4 8.8-.5 13-2.4 5.8-2.3 9-7.8 10-13.8 1.1-8.4-.5-15.9-1.4-24.2a95.3 95.3 0 0 1-.4-32.2c1.6-7.5 5.1-14.4 10.7-19.7a49.6 49.6 0 0 1 31.9-12.8Z" fill="#000"/><path d="M462 205.2c13.3-1.4 27.3 2 39.5 7.3 14.3 6.6 27 16 33.6 30.7a17.1 17.1 0 0 0-12.5 10.3c-4.3 9.9-5.4 21.1-11.1 31a62.5 62.5 0 0 1-16.3 16.7 92.4 92.4 0 0 1-60.7 18.5c-9.8-1.2-20-2.6-27.1-10a39 39 0 0 0 10.7-3.6c5.9-3.5 9.7-9.6 10.8-16.3 1.4-11.9-1.1-22.2-2.2-33.8-.8-5.2-.6-10.7-.5-16 .5-8.6 3.3-17.2 9.5-23.3a43 43 0 0 1 26.3-11.5Z" fill="#796a45"/></g><g transform="translate(-161 -83)"></g></g></svg>